<svg xmlns="http://www.w3.org/2000/svg" version="1.1" xmlns:xlink="http://www.w3.org/1999/xlink" xmlns:svgjs="http://svgjs.dev/svgjs" viewBox="0 0 800 800"><defs><linearGradient x1="50%" y1="0%" x2="50%" y2="100%" id="ssscribble-grad"><stop stop-color="hsl(206, 75%, 49%)" stop-opacity="1" offset="0%"></stop><stop stop-color="hsl(331, 90%, 56%)" stop-opacity="1" offset="100%"></stop></linearGradient></defs><g fill="none" stroke-width="1.5" stroke="url(#ssscribble-grad)" stroke-linecap="round"><path d="M937.42 577.71C1040.84 610.57 1093.58 656.36 1084.74 707.62 1020.74 750.59 917.05 782.13 800.22 784.75 691.6 759.44 611.58 693.97 568.35 599.43 563.56 523.5 588.41 489.92 629.46 542.32 683.73 679.41 732.31 862.44 767.2 1004.1 794.19 1021.32 802.71 900.13 795.24 718.07 779.61 625.29 753.74 703.9 722.45 913.68 688.71 1082.41 654.22 1062.01 621.36 860.93 588.5 674.38 558.83 676.24 530.59 848.77 499.9 1036.5 466 1070.33 424.68 932.55 375.2 725.15 312.57 592.56 234.93 598.73 149.4 721.34 53.64 864.29 -43.69 944.66 -127.81 934.3 -191.62 837.71 -221.05 703.53 -212.03 558.9 -161.49 446.3 -76.95 373.21 15.78 329.81 100.77 310.29 152.08 296.91 148.24 291.32 88.84 275.37 -14.57 242.52 -135.37 209.66 -234.01 161.44 -284.96 105.06 -280.71 56.47 -220.43 16.2 -122.43 2.64 -6.49 18.77 103.33 77.25 189.56 171.23 244.48 254.77 265.28 304.2 259.13 271.51 228.84 148.09 190.03 -33.8 153.52 -190.65 115.48 -231.06 90.52 -127.96 80.48 55.33 75.65 169.05 84.12 116.56 103.07 -83.82 124.19 -269.06 152 -277.63 184.86 -91.12 217.72 109.98 254.08 137.1 294.93 -18.91 337.95 -216.02 389.26 -275.97 451.04 -159.13 518.03 47 597.1 197.68 685.79 214.71 772.94 107.29 858.93 -36.77 932.29 -130.81 981.51 -140.16 999.67 -59.43 978.96 67.13 926.96 212.31 846.59 331.91 754.74 414.17 680.82 468.51 639.26 496.76 647.68 515.76 711.32 526.48 816.61 544.85 937.42 577.71Q937.42 577.71 937.42 577.71" opacity="0.48"></path><path d="M903.42 609.85C1027.96 650.6 966.62 654.87 817.95 593.4 710.55 541.16 619.84 480.36 556.3 437.29 523.62 444.87 519.88 514.64 536.78 650.74 572.4 810.2 612.02 945.66 646.95 989.07 693 840.22 712.12 660.34 690.29 926.47 670.7 1058.99 644.96 1017.97 614.45 826.93 583.93 648.57 550.1 628.1 512.13 767.76 472.3 956.71 425.03 1044.39 368.44 976.35 307.14 799.28 234.67 624.2 152.7 539.98 70.74 572.66 -12.68 683.76 -88.29 802.68 -145.18 887.52 -177.62 897.54 -176.71 843.63 -144.95 742.28 -81.6 626.22 3.43 520.96 86.49 421.87 155.59 347.63 190.95 294.25 177.4 247.44 116.71 211.03 19.42 180.52 -92.9 150 -187.65 126.83 -243.43 116.08 -253.27 111.91 -212.9 130.64 -134.55 176.85 -32.66 229.23 73.76 295.03 168.23 349.37 242.91 356.26 290.34 302.46 312.32 177.63 310.36 18.73 293.67 -128.55 271.31 -193.03 240.97 -140.6 216.07 7.09 200.97 161.8 186.77 207.51 184.47 102.5 193.95 -98.21 204.51 -249.68 225.24 -235.45 255.75 -57.12 286.26 133.94 325.12 181.19 372.1 60.48 420.17 -130.86 477.98 -239.52 545.06 -194.95 613.04 -29.36 688.19 152.8 765.56 256.05 834.94 244.43 895.44 145.17 937.4 25.7 955.41 -70.41 944.16 -96.39 901.25 -56.96 838.56 33.12 759.49 144.16 679.97 249.28 623.98 351.82 600.98 430.96 622.59 488.59 690.15 540.21 791.09 579.33 903.42 609.85Q903.42 609.85 903.42 609.85" opacity="0.40"></path><path d="M869.42 426.54C987.97 458.37 960.55 426.29 835.17 383.16 734.82 371.04 640.92 379.51 564.5 427.76 509.86 517.35 479.97 647.08 471.05 792.42 481.89 904.12 503.01 949.18 526.75 897.8 568.01 704.38 607.43 673.62 599.61 934.97 589.87 1030.94 570.79 973 542.62 792.93 514.45 623.79 478.54 584.38 435.15 689.75 390.84 866.62 337.64 991.06 275.95 991.62 213.27 872.67 143.49 700.43 70.51 558.83 3.37 496.69 -58.18 526.4 -105.94 612.18 -133.94 722.66 -137.44 805.5 -112.12 840.81 -65.03 832.23 3.59 782.84 83.3 713.87 153.66 628.91 206.37 549.18 226.99 484.28 205.3 419.32 144.35 372 53.42 343.82 -50.36 315.66 -140.44 307.97 -199.26 319.81 -220.84 331.59 -198.82 360.07 -140.69 396.23 -56.53 416.38 39.77 419.41 133.93 384.59 219.03 305.88 285.41 182.61 331.04 35.22 356.71 -87.49 365.69 -150.61 364.24 -117.82 329.63 108.13 333.66 -209.05 370.3 -23.12 398.47 156.96 436.53 220.67 483.29 135.6 530.04 -37.45 585.09 -176.29 646.04 -199.1 704.49 -98.27 764.54 69.82 820.47 221.15 865.34 301.88 896.8 290.21 908.04 215.43 899.33 107.01 866.34 17.71 810.57 -28.46 745.74 -33.3 674.69 4.6 611.18 65.54 573.69 144.6 567.7 221.6 600.15 285.68 669.85 350.69 765.63 398.38 869.42 426.54Q869.42 426.54 869.42 426.54" opacity="0.24"></path><path d="M835.42 215.97C919.76 241.79 974.76 256.76 992.97 265.24 975.57 278.81 924.27 296.19 849.63 328.23 761.02 379.14 670.87 457.24 589.45 563.94 520.76 678.48 470.59 793.44 438.65 878.15 423.98 904.5 422.22 860.58 427.8 751.86 442.15 627.52 456.15 532.71 465.64 523.55 477.06 618.1 480.61 782.2 474.78 937.31 468.96 998.16 453.44 927.13 427.62 758.93 401.8 600.01 366.9 545.29 324.04 616.75 281.17 770.73 230.65 912.9 174.49 970.54 120.25 922.16 63.73 791.49 9.59 639.17 -53.43 484.04 -82.37 567.6 -30.79 683.32 23.73 744.45 90.72 771.76 160.41 769.66 216.13 748.11 252.73 711.74 260.17 672.26 231.99 628.02 171.76 590.61 87.42 564.79 -7.75 538.96 -92.44 525.95 -152.56 521.5 -183.43 512.29 -177.61 501.69 -139.11 478.51 -74.75 435.87 6.34 366.06 92.66 265.14 178.69 151.3 254.6 30.89 316.09 -66.13 363.78 -108.08 396.28 -79.98 416.8 18.88 426.4 144.32 430.4 251.85 433.33 281.32 431.97 204.78 434.42 47.94 443.38 -116 451.55 -197.46 467.98 -148.02 493.8 10.86 519.62 179.08 553.61 255.39 594.13 204.54 633.87 59.4 678.38 -90 724.49 -165.65 766.3 -137.59 804.82 -19.62 835.02 131.59 854.29 267.2 858.86 341.74 845.01 349.24 817.36 298.37 772.06 220.48 712.92 145.73 653.48 78.82 595.54 43.24 550.1 37.08 530.53 49.78 539.41 79.37 580.23 114.49 650.32 154.7 740.25 190.15 835.42 215.97Q835.42 215.97 835.42 215.97" opacity="0.75"></path><path d="M801.46 194.32C878.99 217.79 932.76 248.41 956.69 288.19 951.49 331.58 916.64 389.94 859.15 465.5 785.59 545.86 704.95 638.85 626.01 732.96 551.94 806.5 489.57 851.42 440.87 848.83 404.8 799 381.21 705.01 366.91 591.63 361.53 506.34 359.93 477.68 358.36 531.62 360.24 656.51 358.25 811.72 350.16 931.85 342.72 960.63 327.76 880.44 304.29 724.94 280.82 577.17 249.95 510.96 213.12 550.59 176.94 674.11 136.23 815.47 93.67 911.36 54.57 929.89 17.51 863.41 -13.28 743.84 -35.15 605.01 -45.26 490.51 -39.95 421.91 -22.02 402.83 12.52 426.23 62.14 471.83 116.65 534.47 176.23 589.47 232.58 627.3 272.87 658.32 294.37 669.75 290.5 665.5 257.52 657.31 198.99 640.04 121.46 616.57 34.94 593.1 -43.7 564.54 -103.5 528.46 -141.1 488.45 -148.87 434.31 -128.42 362.62 -84.28 284.11 -21.56 190.46 51.1 91.64 129.63 9.86 205.47 -47.23 273.45 -58.91 334.22 -21.07 383.53 65.58 421.97 179.97 451.92 275.1 474.3 320.54 492.13 284.8 505.5 171.7 518.45 16.98 533.45 -115.58 547.34 -164.28 565.5 -102.82 588.97 44.94 612.44 200.44 640.11 285.39 670.49 265.67 699.75 154.59 729.5 12.74 756.81 -94.93 779.67 -131.67 795.94 -81.96 802.17 27.76 799.9 165.58 784.3 287.4 754.3 367.99 717.08 401.35 669.07 390.12 614.99 352.77 566.75 294.82 525.08 240.49 498.14 200.81 494.89 165.93 516.01 150.26 562.66 151.14 631.5 155.63 714.91 170.84 801.42 194.31Q801.46 194.32 801.46 194.32" opacity="0.65"></path><path d="M767.07 383.7C837.65 404.83 889.4 440.62 917.47 489.39 922.53 537.71 902.6 597.01 862.08 661.76 805.45 718.19 738.58 767.72 668.36 797.96 597.1 801.65 531.27 772.16 474 707.17 424.02 625.43 384.02 534.9 352.94 462.22 328.93 438.02 310.75 473.24 295.86 570.22 284.55 702.73 273.18 834.48 259.74 917.19 247.19 918.31 230.79 832.88 209.67 690.83 188.55 555.09 163.7 481.26 136.4 492.65 110.01 581.71 82.95 706.57 57.64 818.66 35.93 887.19 19.32 887.46 10.77 827.17 9.29 722.93 18.96 604.67 41.25 498.6 70.84 414.21 111.62 364.86 160.88 346.25 209.11 353.92 257.03 376.16 298.17 400.85 323.21 432.43 331.11 454.85 317.9 463.78 281.68 472.68 225.65 467.02 155.07 445.89 77.23 424.78 5.23 389.2 -52.61 340.46 -94.3 291.7 -112.58 230.85 -107.59 162.66 -82.44 101.35 -39.14 44.32 16.35 4.08 81.04 -9.87 148.51 9.13 213.75 65.82 277.45 144.2 334.24 237.41 382.92 319.67 426.6 357.98 462.92 338.78 493.12 254.79 519.91 127.22 543.27 -9.65 564.76 -106.88 585.24 -126.46 605.75 -56.94 626.87 78.76 648 220.83 668.73 310.57 688.09 317.64 706.44 243.1 721.52 123.37 731.34 6.34 737.74 -75.16 736.22 -91.45 725.09 -45.26 708.97 49.41 682.51 164.98 646.5 274.41 608.95 367.09 566.52 426.92 523.83 455.79 478.15 450.74 481.95 384.96 546.95 366.05 612.95 357.12 689.23 362.58 767.07 383.7Q767.07 383.7 767.07 383.7" opacity="0.93"></path><path d="M733.45 589.95C796.77 608.73 845.41 634.11 875.72 663.3 888.52 689.82 881.13 714.79 856.08 731.98 816.5 738.75 765.64 729.11 708.54 698.06 646.79 653.48 585.61 590.27 528.37 516.76 473.72 454.29 425.61 409.02 384.54 398.62 347.78 433.84 316.99 513.9 291.08 627.86 267.9 747.58 247.4 846.4 228.36 892.82 210.11 871.68 191.81 784.82 173.03 656.87 154.26 533.99 135.89 456.42 118.72 444.4 102.35 498.66 88.69 595.9 79.33 703.18 72.63 823.03 103.08 769.64 143.7 638.78 176.33 539.73 215.24 452.51 257.44 384.28 294.99 331.6 329.01 298.43 354.83 279.1 366.12 270.22 362.82 265.88 342.77 260.11 305.22 256.84 252.77 247.02 189.45 228.25 120.35 209.47 55.43 182.62 0.79 150.48 -55.69 105.92 -55.68 55.25 -6.52 80.12 40.52 119.41 93.66 179.67 148.7 254.12 206.12 321.77 260.95 376.68 311.02 400.15 359.48 378.26 402.25 309.67 439.1 201.93 474.11 80.89 504.32 -27.03 530.16 -88.53 555.35 -83.76 577.34 -10 596.12 112.87 622.24 286.15 651.36 276.63 650.87 126.61 646.56 26.41 634.71 -36.81 615.2 -52.47 594.06 -22.52 566.2 45 533.38 132.09 502.96 230.21 472.08 320.38 444.58 393.89 427.22 453.88 419.54 494.46 424.96 520.22 446.34 535.57 482.94 544.76 533.71 553.66 595.59 559.88 664.31 571.17 733.41 589.94Q733.45 589.95 733.45 589.95" opacity="0.64"></path><path d="M699.41 601C802.83 633.86 851.56 639.04 840.71 602.09 782.49 549.82 690.93 454.65 592.89 366.94 491.82 367.02 406.34 483.48 341.68 689.22 282.88 843.14 237.77 823.98 204.9 622.86 172.04 436.35 154.55 432.23 156.39 578.65 164.11 755.18 198.31 816.41 256.31 753.9 311.28 610.45 367.98 462.71 402.12 357.7 388.88 271.58 326.83 219.59 223.41 186.73 102.61 153.87 9.35 143.24 -34.33 172.42 -32.02 220.48 17.95 316.94 93.1 417.32 185.34 436.76 274.78 340.67 347.85 140.06 419.35 -30.44 473.16 -39.64 506.02 146.86 538.88 347.98 547.69 380.46 533.13 250.62 517.01 68.97 478.85 -12.62 429.68 30.36 397.61 161.14 382.48 307.59 404.25 416.81 472.03 510.71 578.61 568.14 699.41 601Q699.41 601 699.41 601" opacity="0.69"></path><path d="M665.46 405.77C782.09 427.17 756.32 325.29 653.61 325.53 570.9 412.52 493.64 569.45 431.18 738.77 370.1 824.53 323.97 769 295.8 588.94 267.64 419.8 260.1 376.48 272.37 460.97 286.01 615.81 319.32 734.11 365.11 769.08 400.96 731.29 430.97 643.94 439.02 555.69 411.22 459.58 348.37 392.4 257.46 364.24 153.67 336.07 68.43 349.58 17.7 396.88 -2.32 436.32 15.62 479.71 58.72 480.58 119.73 408.7 186.64 260.54 246.1 85.05 307.68 -20.08 355.6 11.77 383.76 180.87 411.94 360.96 417.69 427.95 404.92 362.85 394.28 214.18 371.33 87.11 347.23 37.03 341.04 57.73 352.96 133.62 393.63 216.65 465 310.4 561.64 377.6 665.42 405.76Q665.46 405.77 665.46 405.77" opacity="0.74"></path><path d="M631.46 204.57C708.98 228.04 759.32 235.45 778.56 240.69 773.36 262.14 742.69 310.31 697.57 401.85 641.23 520.22 583.31 657.78 533.15 762.91 481.66 787.49 441.72 710.44 418.25 554.94 394.78 407.17 389.99 338.83 400.81 364.73 410.29 465.57 431.58 580.82 457.15 663.17 471.51 713.11 477.28 713.46 465.28 686.16 428.83 643.06 368.98 601.89 291.46 578.42 204.94 554.94 130.5 551.4 78.85 553.82 45.32 540.44 39.22 503.46 54.57 422.76 84.18 309.65 123.84 169.52 163.59 51.46 206.73 8.34 242.98 67.14 266.45 214.87 294.17 413.69 295.35 305.38 294.99 161.44 310.39 100.66 341.38 89.12 392.11 108.35 460.96 143.78 544.91 181.09 631.42 204.56Q631.46 204.57 631.46 204.57" opacity="0.60"></path><path d="M597.28 203.95C660.62 222.72 706.34 255.58 731.68 305.25 742.42 361.72 734.79 442.77 714.38 541.82 685.12 634.2 650.73 714.74 617.96 752.22 583.09 732.28 554.1 648.82 535.32 520.89 513.15 358.78 514.85 373.8 522.04 480.25 517.84 554.05 505.56 602.12 481.05 622.04 441.95 634.18 388.62 628.15 325.28 609.38 256.18 590.6 194.73 560.84 147.55 516.17 109.36 463.7 89.07 386.33 84.91 287.92 89.62 191.83 104.86 101.97 125.05 50.18 148.06 55.18 170.86 125.98 189.64 248.89 208.42 376.82 221.4 467.9 230.93 501.6 243.28 477.88 257.35 417.26 277.24 349.49 306.02 275.05 346.22 223.31 398.18 199.38 459.12 182.25 528.18 185.17 597.28 203.95Q597.28 203.95 597.28 203.95" opacity="0.55"></path><path d="M563.46 404.64C667.12 588.62 576.16 292.37 553.39 305.96 516.97 398.72 450.37 453.59 359.46 425.43 255.66 397.26 180.18 291.39 148.9 161.71 133.88 85.79 148.21 113.79 176.38 282.94 204.54 463 241.21 536.23 293.15 513.05 361.35 429.95 459.66 376.47 563.46 404.64Q563.46 404.64 563.46 404.64" opacity="0.68"></path><path d="M529.42 600.51C644.36 638.07 660.8 671.01 623.25 452.93 585.69 253.28 508.36 252.87 393.42 215.31 255.96 177.76 193.29 117.28 230.85 316.93 268.4 535.01 391.96 562.96 529.42 600.51Q529.42 600.51 529.42 600.51" opacity="0.51"></path></g></svg>