<svg xmlns="http://www.w3.org/2000/svg" version="1.1" xmlns:xlink="http://www.w3.org/1999/xlink" xmlns:svgjs="http://svgjs.dev/svgjs" viewBox="0 0 800 800" opacity="0.2"><defs><linearGradient x1="50%" y1="0%" x2="50%" y2="100%" id="uundulate-grad"><stop stop-color="hsl(37, 99%, 67%)" stop-opacity="1" offset="45%"></stop><stop stop-color="hsl(316, 73%, 52%)" stop-opacity="1" offset="100%"></stop></linearGradient></defs><g stroke-width="2" stroke="url(#uundulate-grad)" fill="none"><path d="M879.6812792495739 23.544880541623115C924.6374379593599 167.3498259771112 607.7461833887123 625.1691045367882 433.84835247562035 769.8660788024504C259.95052156252837 914.5630530681126 150.37440007030136 806.8848212224093 44.971690866733184 718.0903570168009C-60.43101833683494 629.2958928111925 -108.14446416023975 476.67098734567446 -72.08465170150737 343.65265061552986C-36.02483924277499 210.63431388538515 19.774221720507057 146.2914594775043 218.05879066864873 79.60234071210726C416.3433596167906 12.913221946710223 834.7251205397879 -120.26006489386492 879.6812792495739 23.544880541623115C924.6374379593599 167.3498259771112 607.7461833887123 625.1691045367882 433.84835247562035 769.8660788024504 "></path><path d="M857.8775861253926 40.6565115597063C900.7902830756425 177.92486856630853 598.3031764400243 614.9341799187275 432.30979238661837 753.0540189904959C266.3164083332124 891.1738580622643 161.72101963608668 788.3900913004568 61.10934266904434 703.6317391041941C-39.50233429799795 618.8733869079315 -85.04698712942985 473.1859771453917 -50.626257055185306 346.21392844843535C-16.20552698094076 219.24187975147902 37.05721302946483 157.82370054395642 226.32884702541833 94.16590535880482C415.6004810213718 30.508110173653108 814.9648891751422 -96.61184544689593 857.8775861253926 40.6565115597063C900.7902830756425 177.92486856630853 598.3031764400243 614.9341799187275 432.30979238661837 753.0540189904959 "></path><path d="M836.073954036367 57.76808154263324C876.9431892270813 188.49985012034972 588.8602305264927 604.6991942655105 430.77129333277276 736.2418981433852C272.6823561390527 867.7846020212601 173.06770023702825 769.895300343348 77.24705550651174 689.1730601564313C-18.573589224004763 608.4508199695144 -61.9494490634637 469.70090590995267 -29.167801373706993 348.7751452461848C3.6138463160497167 227.84938458241686 54.34026537357886 169.3558805752525 234.59896441734418 108.72940897034607C414.85766346110927 48.102937365439686 795.2047188456525 -72.96368703508318 836.073954036367 57.76808154263324C876.9431892270813 188.49985012034972 588.8602305264927 604.6991942655105 430.77129333277276 736.2418981433852 "></path><path d="M814.2702609121852 74.87965152556018C853.0960343433642 199.0748316743908 579.4172235778049 594.4642086122938 429.2327332437708 719.4297772962746C279.0482429097368 844.3953459802556 184.41431980281345 751.4005093862393 93.38470730882284 674.7143812086684C2.3550948148322277 598.0282530310973 -38.851972032653805 466.21583467451364 -7.7094067273849305 351.33636204393406C23.433158577884 236.4568894133546 71.62325668253663 180.88806060654838 242.86902077411355 123.29291258188738C414.1147848656906 65.69776455722632 775.4444874810065 -49.31552862327044 814.2702609121852 74.87965152556018C853.0960343433642 199.0748316743908 579.4172235778049 594.4642086122938 429.2327332437708 719.4297772962746 "></path><path d="M792.4665677880037 91.99128254364336C829.2488794596468 209.64987426358812 569.9742166291169 584.2292839942329 427.6941731547689 702.6177174843201C285.41412968042096 821.0061509744073 195.76093936859888 732.9057794642868 109.522359111134 660.2557632960616C23.283778853669162 587.6057471278365 -15.754495001843907 462.7308244742309 13.748987918937132 353.8976398768398C43.25247083971817 245.06445527944857 88.90624799149441 192.4203016730006 251.13907713088315 137.85647722858494C413.3719062702719 83.29265278416915 755.6842561163608 -25.667309176301387 792.4665677880037 91.99128254364336C829.2488794596468 209.64987426358812 569.9742166291169 584.2292839942329 427.6941731547689 702.6177174843201 "></path><path d="M770.6628136286658 109.10288304414843C805.4016635407731 220.22488633520743 560.5311486452728 573.9943288585941 426.1555520306108 685.8056271547877C291.77995541594873 797.616925450981 207.10749789922784 714.4110190247561 125.6599498782889 645.7971148658768C44.212401857349846 577.1832107069974 7.3429209938097415 459.24578375637 35.207321530103 356.45888719216714C63.071722066396205 253.67199062796453 106.18917826529594 203.95251222187477 259.4090724524964 152.4200113577043C412.62896663969684 100.88751049353391 735.9239637165585 -2.019120246910518 770.6628136286658 109.10288304414843C805.4016635407731 220.22488633520743 560.5311486452728 573.9943288585941 426.1555520306108 685.8056271547877 "></path><path d="M748.859120504484 126.21445302707536C781.5545086570557 230.7998678892485 551.0881416965848 563.7593432053773 424.61699194160883 668.993506307677C298.1458421866329 774.2276694099769 218.45411746501316 695.9162280676472 141.7976016806 631.3384359181139C65.14108589618684 566.7606437685804 30.440398024619697 455.76071252093084 56.665716176425065 359.0201039899166C82.89103432823043 262.27949545890226 123.47216957425371 215.4846922531707 267.6791288092659 166.98351496924562C411.88608804427804 118.48233768532054 716.1637323519126 21.629038164902227 748.859120504484 126.21445302707536C781.5545086570557 230.7998678892485 551.0881416965848 563.7593432053773 424.61699194160883 668.993506307677 "></path><path d="M727.0554273803027 143.32605352758043C757.7073537733386 241.3748799608677 541.6451347478969 553.5243880697383 423.07843185260685 652.1814159781444C304.5117289573169 750.8384438865504 229.80073703079847 677.4214676281165 157.93525348291115 616.8797874879289C86.06976993502377 556.3381073477412 53.537875055429595 452.27567180306994 78.12411082274713 361.58135130524397C102.71034659006466 270.8870308074181 140.7551608832115 227.0169028020448 275.94918516603536 181.54704909836505C411.14320944885935 136.07719539468525 696.4035009872666 45.277227094293096 727.0554273803027 143.32605352758043C757.7073537733386 241.3748799608677 541.6451347478969 553.5243880697383 423.07843185260685 652.1814159781444 "></path><path d="M705.251764773699 160.43768454566361C733.8602294071992 251.94992255006508 532.2021583167871 543.2894634516776 421.5399022811831 635.36935616619C310.8776462455792 727.4492488807023 241.14738711416192 658.926737706164 174.07293580280037 602.4211695753222C106.99848449143883 545.9156014444804 76.63538260381762 448.79066160278717 99.58253598664731 364.1426291381497C122.52968936947701 279.4945966735121 158.0381827097474 238.54914386849703 284.219272040383 196.11061374506255C410.4003613710187 153.67208362162808 676.6433001401989 68.92544654126209 705.251764773699 160.43768454566361C733.8602294071992 251.94992255006508 532.2021583167871 543.2894634516776 421.5399022811831 635.36935616619 "></path><path d="M683.4480716495174 177.5492545285905C710.0130745234819 262.5249041041062 522.7591513680991 533.0544777984608 420.00134219218114 618.5572353190794C317.2435330162632 704.0599928396979 252.49400667994723 640.4319467490552 190.21058760511153 587.9624906275592C127.92716853027582 535.4930345060634 99.73285963462752 445.30559036734826 121.04093063296938 366.70384593589904C142.34900163131124 288.1021015044498 175.32117401870516 250.081323899793 292.4893283971526 210.67411735660386C409.6574827755999 171.2669108134147 656.8830687755529 92.57360495307483 683.4480716495174 177.5492545285905C710.0130745234819 262.5249041041062 522.7591513680991 533.0544777984608 420.00134219218114 618.5572353190794 "></path><path d="M661.6443785253358 194.66085502909556C686.1659196397645 273.0999161757254 513.3161444194113 522.819522662822 418.4627821031793 601.7451449895468C323.6094197869472 680.6707673162716 263.84062624573255 621.9371863095245 206.34823940742262 573.5038421973743C148.85585256911276 525.0704980852242 122.83033666543741 441.82054964948725 142.49932527929144 369.2650932512265C162.16831389314547 296.70963685296573 192.60416532766294 261.6135344486671 300.75938475392206 225.2376514857233C408.9146041801812 188.86176852277947 637.1228374109071 116.2217938824657 661.6443785253358 194.66085502909556C686.1659196397645 273.0999161757254 513.3161444194113 522.819522662822 418.4627821031793 601.7451449895468 "></path><path d="M639.840639624787 211.7724250120225C662.3187189796799 283.67489772976654 503.87309169435616 512.584537009605 416.9241762378101 584.9330241424361C329.9752607812642 657.2815112752672 275.1872000351507 603.4423953524156 222.4858454333666 559.0451632496114C169.78449083158256 514.6479311468072 145.92776791988013 438.3354784140481 163.95767414924632 371.82631004897587C181.9875803786125 305.3171416839035 209.88711086025353 273.1457144799631 309.02939533432436 239.80115509726454C408.1716798083953 206.45659571456605 617.362560269894 139.8699522942785 639.840639624787 211.7724250120225C662.3187189796799 283.67489772976654 503.87309169435616 512.584537009605 416.9241762378101 584.9330241424361 "></path><path d="M618.0369770181835 228.88405603010568C638.4715946135407 294.2499403189639 494.4301152632463 502.34961239154427 415.3856466663864 568.1209643304817C336.34117806952634 633.8923162694191 286.5338501185141 584.9476654304631 238.62352775325587 544.5865453370047C190.71320538799762 504.2254252435463 169.02527546826815 434.85046821376545 185.4160993131465 374.3875878818815C201.80692315802486 313.9247075499975 227.17013268678943 284.6779555464153 317.2994822086721 254.3647197439621C407.42883173055463 224.05148394150893 597.6023594228262 163.5181717412475 618.0369770181835 228.88405603010568C638.4715946135407 294.2499403189639 494.4301152632463 502.34961239154427 415.3856466663864 568.1209643304817 "></path><path d="M596.2332838940018 245.99565653061074C614.6244397298234 304.8249523905831 484.98710831455844 492.1146572559055 413.8470865773845 551.3088740009491C342.7070648402105 610.5030907459927 297.88046968429944 566.4529049909324 254.76117955556697 530.1278969068198C211.64188942683455 493.80288882270725 192.12275249907805 431.36542749590444 206.87449395946857 376.94883519720895C221.62623541985909 322.53224289851335 244.4531239957472 296.21016609528937 325.5695385654416 268.92825387308153C406.68595313513595 241.64634165087364 577.8421280581804 187.16636067063837 596.2332838940018 245.99565653061074C614.6244397298234 304.8249523905831 484.98710831455844 492.1146572559055 413.8470865773845 551.3088740009491 "></path><path d="M574.429560252242 263.1072265135377C590.7772543285279 315.39993394462425 475.54407084829245 481.87967160268863 412.3084959708044 534.4967531538384C349.07292109331644 587.1138347049884 309.2270587325066 547.9581140338237 270.8988008403 515.6692179590569C232.57054294809342 483.3803218842902 215.22019901230982 427.8803562604654 228.3328580882125 379.5100519949583C241.4455171641152 331.13974772945113 261.73608478712686 307.74234612658535 333.83956440463294 283.4917574846228C405.943044022139 259.2411688426603 558.0818661759563 210.8145190824511 574.429560252242 263.1072265135377C590.7772543285279 315.39993394462425 475.54407084829245 481.87967160268863 412.3084959708044 534.4967531538384 "></path><path d="M552.6258671280605 280.21882701404274C566.9300994448106 325.9749460162435 466.10106389960447 471.64471646704976 410.76993588180244 517.6846628243059C355.4388078640005 563.7246091815621 320.5736782982919 529.4633535942929 287.03645264261115 501.21056952887204C253.49922698693035 472.95778546345116 238.31767604311972 424.3953155426045 249.79125273453457 382.0712993102858C261.2648294259494 339.747283077967 279.01907609608463 319.27455667545945 342.1096207614024 298.0552916137422C405.20016542672033 276.836026552025 538.3216348113103 234.46270801184198 552.6258671280605 280.21882701404274C566.9300994448106 325.9749460162435 466.10106389960447 471.64471646704976 410.76993588180244 517.6846628243059 "></path><path d="M530.8221740038789 297.3304275145478C543.0829445610932 336.5499580878627 456.6580569509166 461.409761331411 409.2313757928006 500.8725724947734C361.80469463468455 540.3353836581358 331.9202978640772 510.9685931547622 303.17410444492225 486.75192109868715C274.42791102576734 462.5352490426121 261.4151530739296 420.9102748247436 271.24964738085663 384.63254662561326C281.0841416877837 348.3548184264829 296.3020674050424 330.80676722433356 350.37967711817197 312.61882574286165C404.45728683130153 294.43088426138974 518.5614034466645 258.11089694123285 530.8221740038789 297.3304275145478C543.0829445610932 336.5499580878627 456.6580569509166 461.409761331411 409.2313757928006 500.8725724947734 "></path><path d="M509.0184808796972 314.44199749747474C519.2357896773758 347.12493964190384 447.2150500022286 451.174775678194 407.69281570379866 484.0604516476627C368.17058140536864 516.9461276171314 343.26691742986253 492.4738021976534 319.3117562472334 472.29324215092424C295.3565950646043 452.1126821041951 284.51263010473957 417.4252035893046 292.70804202717875 387.1937634233626C300.9034539496179 356.9623232574206 313.5850587140002 342.33894725562953 358.6497334749415 327.18232935440295C403.7144082358828 312.0257114531763 498.80117208201864 281.7590553530456 509.0184808796972 314.44199749747474C519.2357896773758 347.12493964190384 447.2150500022286 451.174775678194 407.69281570379866 484.0604516476627 "></path><path d="M487.21478775551554 331.5536132567688C495.3886347936584 357.69996697231215 437.77204305354076 440.9398358013443 406.15425561479674 467.2483765769192C374.5364681760527 493.5569173524942 354.61353699564785 473.97905701691184 335.44940804954456 457.83460897952847C316.2852791034412 441.6901609421451 307.61010713554947 413.9401781302327 314.1664366735008 389.75502599747915C320.72276621145215 365.56987386472554 330.86805002295796 353.8711730632927 366.919789831711 341.7458787423114C402.97152964046404 329.62058442133014 479.0409407173727 305.4072595412255 487.21478775551554 331.5536132567688C495.3886347936584 357.69996697231215 437.77204305354076 440.9398358013443 406.15425561479674 467.2483765769192 "></path><path d="M465.4110793725449 348.66522901606294C471.54146465115207 368.2749943027204 428.32902084606377 430.70489592449456 404.61568026700576 450.43630150617577C380.90233968794774 470.16770708785697 365.96014130264405 455.48431183617015 351.5870445930666 443.37597580813264C337.21394788348914 431.2676397800951 330.7075689075703 410.4551526711609 335.6248160610338 392.3162885715957C340.5420632144973 374.1774244720305 348.1510260731267 365.4033988709558 375.1898309296914 356.3094281302199C402.22863578625623 347.2154573894839 459.2806940939377 329.0554637294055 465.4110793725449 348.66522901606294C471.54146465115207 368.2749943027204 428.32902084606377 430.70489592449456 404.61568026700576 450.43630150617577 "></path><path d="M443.60738624836324 365.77681425777894C447.6943097674347 378.8499911155506 418.88601389737585 420.4699255300667 403.07712017800384 433.62419591785414C387.26822645863183 446.77846630564164 377.30676086842936 436.98953613785045 367.72469639537775 428.91731211915874C358.1426319223261 420.8450881004671 353.8050459383802 406.9700966945109 357.0832107073559 394.8775206281341C360.36137547633155 382.7849445617573 365.43401738208445 376.93559416104085 383.45988728646097 370.87294700055025C401.4857571908375 364.8102998400596 439.5204627292918 352.7036374000073 443.60738624836324 365.77681425777894C447.6943097674347 378.8499911155506 418.88601389737585 420.4699255300667 403.07712017800384 433.62419591785414 "></path><path d="M421.8036931241816 382.888414758284C423.84715488371734 389.4250031871698 409.4430069486879 410.2349703944279 401.5385600890019 416.81210558832163C393.6341132293159 423.3892407822153 388.6533804342147 418.49477569831976 383.86234819768885 414.4586636889739C379.07131596116307 410.42255167962804 376.9025229691901 403.48505597664996 378.54160535367794 397.4387679434616C380.1806877381658 391.3924799102732 382.7170086910422 388.46780470991496 391.7299436432305 385.43648112966963C400.74287859541874 382.4051575494243 419.7602313646459 376.3518263293982 421.8036931241816 382.888414758284C423.84715488371734 389.4250031871698 409.4430069486879 410.2349703944279 401.5385600890019 416.81210558832163 "></path></g></svg>