<?xml version="1.0" standalone="no"?><svg xmlns="http://www.w3.org/2000/svg" viewBox="0 0 1440 320"><path fill="#0099ff" fill-opacity="1" d="M0,128L16,112C32,96,64,64,96,53.3C128,43,160,53,192,101.3C224,149,256,235,288,272C320,309,352,299,384,266.7C416,235,448,181,480,181.3C512,181,544,235,576,218.7C608,203,640,117,672,117.3C704,117,736,203,768,224C800,245,832,203,864,192C896,181,928,203,960,218.7C992,235,1024,245,1056,213.3C1088,181,1120,107,1152,106.7C1184,107,1216,181,1248,186.7C1280,192,1312,128,1344,101.3C1376,75,1408,85,1424,90.7L1440,96L1440,320L1424,320C1408,320,1376,320,1344,320C1312,320,1280,320,1248,320C1216,320,1184,320,1152,320C1120,320,1088,320,1056,320C1024,320,992,320,960,320C928,320,896,320,864,320C832,320,800,320,768,320C736,320,704,320,672,320C640,320,608,320,576,320C544,320,512,320,480,320C448,320,416,320,384,320C352,320,320,320,288,320C256,320,224,320,192,320C160,320,128,320,96,320C64,320,32,320,16,320L0,320Z"></path></svg>